<svg width="14" height="14" viewBox="0 0 14 14" fill="none" xmlns="http://www.w3.org/2000/svg">
<path fill-rule="evenodd" clip-rule="evenodd" d="M12.5597 4.10615C13.0063 4.45215 13.2803 4.96615 13.327 5.52549L13.3337 5.65949V11.0655C13.3337 12.4588 12.233 13.5922 10.8537 13.6655H9.52699C8.89299 13.6528 8.38032 13.1595 8.33366 12.5395L8.32699 12.4455V10.5395C8.32699 10.3322 8.17299 10.1595 7.96699 10.1255L7.90699 10.1188H6.12633C5.91366 10.1255 5.74033 10.2788 5.71366 10.4788L5.70699 10.5395V12.4395C5.70699 12.4788 5.69966 12.5255 5.69366 12.5588L5.68699 12.5728L5.67966 12.6188C5.60033 13.1862 5.13366 13.6188 4.55366 13.6595L4.46699 13.6655H3.27366C1.88033 13.6655 0.740326 12.5728 0.666992 11.1988V5.65949C0.672992 5.09215 0.920325 4.56549 1.33366 4.19882L5.48699 0.858822C6.33366 0.186155 7.52032 0.159488 8.39299 0.778822L8.50033 0.858822L12.5597 4.10615ZM12.3997 11.1722L12.407 11.0655V5.66549C12.3997 5.37949 12.2803 5.11216 12.0737 4.91282L11.987 4.83882L7.92032 1.58549C7.41366 1.17882 6.69366 1.15949 6.16032 1.51216L6.05966 1.58549L2.00633 4.85282C1.77366 5.02549 1.63366 5.28549 1.60033 5.55882L1.59299 5.66549V11.0655C1.59299 11.9522 2.28632 12.6788 3.16699 12.7322H4.46699C4.61366 12.7322 4.74032 12.6328 4.75966 12.4928L4.77366 12.3728L4.78032 12.3388V10.5395C4.78032 9.82616 5.32699 9.24616 6.02699 9.19216H7.90699C8.61966 9.19216 9.19966 9.73949 9.25366 10.4395V12.4455C9.25366 12.5855 9.35366 12.7062 9.48699 12.7322H10.7263C11.6197 12.7322 12.3463 12.0462 12.3997 11.1722Z" fill="#B4B8D7"/>
</svg>
