<svg width="20" height="20" viewBox="0 0 20 20" fill="none" xmlns="http://www.w3.org/2000/svg">
<path fill-rule="evenodd" clip-rule="evenodd" d="M-9.15527e-05 10.0001C-9.15527e-05 4.48009 4.46991 9.15527e-05 9.99991 9.15527e-05C15.5199 9.15527e-05 19.9999 4.48009 19.9999 10.0001C19.9999 15.5301 15.5199 20.0001 9.99991 20.0001C4.46991 20.0001 -9.15527e-05 15.5301 -9.15527e-05 10.0001ZM12.2299 11.8301L13.8499 6.71009C13.9599 6.36009 13.6399 6.03009 13.2899 6.14009L8.16991 7.74009C7.95991 7.81009 7.78991 7.97009 7.72991 8.18009L6.12991 13.3101C6.01991 13.6501 6.34991 13.9801 6.68991 13.8701L11.7899 12.2701C11.9999 12.2101 12.1699 12.0401 12.2299 11.8301Z" fill="#F15223"/>
</svg>
