<svg width="48" height="48" viewBox="0 0 48 48" fill="none" xmlns="http://www.w3.org/2000/svg">
<rect width="48" height="48" rx="24" fill="#040415"/>
<path d="M24.5 23V23.5H25H31C31.1326 23.5 31.2598 23.5527 31.3536 23.6464C31.4473 23.7402 31.5 23.8674 31.5 24C31.5 24.1326 31.4473 24.2598 31.3536 24.3536C31.2598 24.4473 31.1326 24.5 31 24.5H25H24.5V25V31C24.5 31.1326 24.4473 31.2598 24.3536 31.3536C24.2598 31.4473 24.1326 31.5 24 31.5C23.8674 31.5 23.7402 31.4473 23.6464 31.3536C23.5527 31.2598 23.5 31.1326 23.5 31V25V24.5H23H17C16.8674 24.5 16.7402 24.4473 16.6464 24.3536C16.5527 24.2598 16.5 24.1326 16.5 24C16.5 23.8674 16.5527 23.7402 16.6464 23.6464C16.7402 23.5527 16.8674 23.5 17 23.5H23H23.5V23V17C23.5 16.8674 23.5527 16.7402 23.6464 16.6464C23.7402 16.5527 23.8674 16.5 24 16.5C24.1326 16.5 24.2598 16.5527 24.3536 16.6464C24.4473 16.7402 24.5 16.8674 24.5 17V23Z" fill="white" stroke="white"/>
</svg>
